<?xml version="1.0" encoding="UTF-8" standalone="no"?>
<svg
   xmlns:a="http://ns.adobe.com/AdobeSVGViewerExtensions/3.0/"
   xmlns:dc="http://purl.org/dc/elements/1.1/"
   xmlns:cc="http://creativecommons.org/ns#"
   xmlns:rdf="http://www.w3.org/1999/02/22-rdf-syntax-ns#"
   xmlns:svg="http://www.w3.org/2000/svg"
   xmlns="http://www.w3.org/2000/svg"
   xmlns:xlink="http://www.w3.org/1999/xlink"
   xmlns:sodipodi="http://sodipodi.sourceforge.net/DTD/sodipodi-0.dtd"
   xmlns:inkscape="http://www.inkscape.org/namespaces/inkscape"
   width="32.000000mm"
   height="32.000000mm"
   viewBox="0 0.292 127 104"
   overflow="visible"
   enable-background="new 0 0.292 127 104"
   xml:space="preserve"
   id="svg15517"
   sodipodi:version="0.32"
   inkscape:version="0.46"
   sodipodi:docname="ibus-locale.svg"
   sodipodi:docbase="/home/jr/devel/kdebase/pics/crystalsvg"
   inkscape:output_extension="org.inkscape.output.svg.inkscape"><defs
   id="defs15687"><radialGradient
   gradientUnits="userSpaceOnUse"
   gradientTransform="translate(308.371,199.852)"
   fy="-112.685"
   fx="-260.979"
   r="56.667198"
   cy="-112.685"
   cx="-260.979"
   id="radialGradient3328">
					<stop
   id="stop3330"
   style="stop-color:#ffff00;stop-opacity:1;"
   offset="0" />

					<stop
   id="stop3332"
   style="stop-color:#ffff6d;stop-opacity:1;"
   offset="1" />

				</radialGradient><linearGradient
   inkscape:collect="always"
   id="linearGradient3320"><stop
     style="stop-color:#ffff00;stop-opacity:1;"
     offset="0"
     id="stop3322" /><stop
     style="stop-color:#ffff00;stop-opacity:0;"
     offset="1"
     id="stop3324" /></linearGradient><inkscape:perspective
   sodipodi:type="inkscape:persp3d"
   inkscape:vp_x="0 : 56.692913 : 1"
   inkscape:vp_y="0 : 1000 : 0"
   inkscape:vp_z="113.38583 : 56.692913 : 1"
   inkscape:persp3d-origin="56.692913 : 37.795275 : 1"
   id="perspective61" />
			

			

			

		
				<radialGradient
   id="path601_3_"
   cx="-260.979"
   cy="-112.963"
   r="56.666901"
   fx="-260.979"
   fy="-112.963"
   gradientTransform="translate(308.371,199.852)"
   gradientUnits="userSpaceOnUse">
					<stop
   offset="0"
   style="stop-color:#ff4442;stop-opacity:1;"
   id="stop15615" />

					<stop
   offset="1"
   style="stop-color:#ff0000;stop-opacity:1;"
   id="stop15617" />

					<a:midPointStop
   offset="0"
   style="stop-color:#42FF00"
   id="midPointStop15619" />

					<a:midPointStop
   offset="0.5"
   style="stop-color:#42FF00"
   id="midPointStop15621" />

					<a:midPointStop
   offset="1"
   style="stop-color:#007200"
   id="midPointStop15623" />

				</radialGradient>

				

				

				<radialGradient
   id="path609_3_"
   cx="-260.979"
   cy="-112.685"
   r="56.667198"
   fx="-260.979"
   fy="-112.685"
   gradientTransform="translate(308.371,199.852)"
   gradientUnits="userSpaceOnUse">
					<stop
   offset="0"
   style="stop-color:rgb(255,255,121)"
   id="stop15632" />

					<stop
   offset="1"
   style="stop-color:rgb(255,222,0)"
   id="stop15634" />

				</radialGradient>

				

				

				<radialGradient
   id="path617_3_"
   cx="-260.918"
   cy="-112.684"
   r="56.5989"
   fx="-260.918"
   fy="-112.684"
   gradientTransform="translate(308.371,199.852)"
   gradientUnits="userSpaceOnUse">
					<stop
   offset="0"
   style="stop-color:rgb(162,212,255)"
   id="stop15643" />

					<stop
   offset="1"
   style="stop-color:rgb(0,0,159)"
   id="stop15645" />

				</radialGradient>

				

				

				<radialGradient
   id="path625_3_"
   cx="-260.91901"
   cy="-112.684"
   r="56.599899"
   fx="-260.91901"
   fy="-112.684"
   gradientTransform="translate(308.371,199.852)"
   gradientUnits="userSpaceOnUse">
					<stop
   offset="0"
   style="stop-color:rgb(162,212,255)"
   id="stop15654" />

					<stop
   offset="1"
   style="stop-color:rgb(0,0,159)"
   id="stop15656" />

					<a:midPointStop
   offset="0"
   style="stop-color:#A2D4FF"
   id="midPointStop15658" />

					<a:midPointStop
   offset="0.5"
   style="stop-color:#A2D4FF"
   id="midPointStop15660" />

					<a:midPointStop
   offset="1"
   style="stop-color:#00009F"
   id="midPointStop15662" />

				</radialGradient>

				

				

				

				

				<linearGradient
   id="path635_3_"
   gradientUnits="userSpaceOnUse"
   x1="-232.472"
   y1="-255.38"
   x2="-251.659"
   y2="-138.34"
   gradientTransform="translate(308.371,199.852)">
					<stop
   offset="10.9195%"
   style="stop-color:rgb(255,255,255)"
   id="stop15675" />

					<stop
   offset="100%"
   style="stop-opacity:0;stop-color:rgb(255,255,255)"
   id="stop15677" />

				</linearGradient>

				

			<linearGradient
   inkscape:collect="always"
   xlink:href="#path635_3_"
   id="linearGradient2512"
   gradientUnits="userSpaceOnUse"
   gradientTransform="translate(308.371,199.852)"
   x1="-232.472"
   y1="-255.38"
   x2="-251.659"
   y2="-138.34" /><radialGradient
   inkscape:collect="always"
   xlink:href="#path601_3_"
   id="radialGradient2530"
   gradientUnits="userSpaceOnUse"
   gradientTransform="translate(308.371,199.852)"
   cx="-260.979"
   cy="-112.963"
   fx="-260.979"
   fy="-112.963"
   r="56.666901" /><linearGradient
   inkscape:collect="always"
   xlink:href="#radialGradient3328"
   id="linearGradient3318"
   x1="9.6597681"
   y1="20.0994"
   x2="19.81918"
   y2="20.0994"
   gradientUnits="userSpaceOnUse" /><linearGradient
   inkscape:collect="always"
   xlink:href="#linearGradient3320"
   id="linearGradient3326"
   x1="9.659768"
   y1="20.0994"
   x2="19.81918"
   y2="20.0994"
   gradientUnits="userSpaceOnUse" /><linearGradient
   inkscape:collect="always"
   xlink:href="#radialGradient3328"
   id="linearGradient3336"
   gradientUnits="userSpaceOnUse"
   x1="9.6597681"
   y1="20.0994"
   x2="19.81918"
   y2="20.0994" /><linearGradient
   inkscape:collect="always"
   xlink:href="#linearGradient3320"
   id="linearGradient3338"
   gradientUnits="userSpaceOnUse"
   x1="9.659768"
   y1="20.0994"
   x2="19.81918"
   y2="20.0994" /><linearGradient
   inkscape:collect="always"
   xlink:href="#radialGradient3328"
   id="linearGradient3342"
   gradientUnits="userSpaceOnUse"
   x1="9.6597681"
   y1="20.0994"
   x2="19.81918"
   y2="20.0994" /><linearGradient
   inkscape:collect="always"
   xlink:href="#linearGradient3320"
   id="linearGradient3344"
   gradientUnits="userSpaceOnUse"
   x1="9.659768"
   y1="20.0994"
   x2="19.81918"
   y2="20.0994" /><linearGradient
   inkscape:collect="always"
   xlink:href="#radialGradient3328"
   id="linearGradient3348"
   gradientUnits="userSpaceOnUse"
   x1="9.6597681"
   y1="20.0994"
   x2="19.81918"
   y2="20.0994" /><linearGradient
   inkscape:collect="always"
   xlink:href="#linearGradient3320"
   id="linearGradient3350"
   gradientUnits="userSpaceOnUse"
   x1="9.659768"
   y1="20.0994"
   x2="19.81918"
   y2="20.0994" /><linearGradient
   inkscape:collect="always"
   xlink:href="#radialGradient3328"
   id="linearGradient3354"
   gradientUnits="userSpaceOnUse"
   x1="9.6597681"
   y1="20.0994"
   x2="19.81918"
   y2="20.0994" /><linearGradient
   inkscape:collect="always"
   xlink:href="#linearGradient3320"
   id="linearGradient3356"
   gradientUnits="userSpaceOnUse"
   x1="9.659768"
   y1="20.0994"
   x2="19.81918"
   y2="20.0994" /><linearGradient
   inkscape:collect="always"
   xlink:href="#path635_3_"
   id="linearGradient3374"
   gradientUnits="userSpaceOnUse"
   gradientTransform="translate(308.371,199.852)"
   x1="-232.472"
   y1="-255.38"
   x2="-251.659"
   y2="-138.34" /><radialGradient
   inkscape:collect="always"
   xlink:href="#path601_3_"
   id="radialGradient3377"
   gradientUnits="userSpaceOnUse"
   gradientTransform="translate(308.371,199.852)"
   cx="-260.979"
   cy="-112.963"
   fx="-260.979"
   fy="-112.963"
   r="56.666901" /><radialGradient
   inkscape:collect="always"
   xlink:href="#path601_3_"
   id="radialGradient3414"
   gradientUnits="userSpaceOnUse"
   gradientTransform="translate(308.371,199.852)"
   cx="-260.979"
   cy="-112.963"
   fx="-260.979"
   fy="-112.963"
   r="56.666901" /><linearGradient
   inkscape:collect="always"
   xlink:href="#path635_3_"
   id="linearGradient3416"
   gradientUnits="userSpaceOnUse"
   gradientTransform="translate(308.371,199.852)"
   x1="-232.472"
   y1="-255.38"
   x2="-251.659"
   y2="-138.34" /><linearGradient
   inkscape:collect="always"
   xlink:href="#radialGradient3328"
   id="linearGradient3418"
   gradientUnits="userSpaceOnUse"
   x1="9.6597681"
   y1="20.0994"
   x2="19.81918"
   y2="20.0994" /><linearGradient
   inkscape:collect="always"
   xlink:href="#linearGradient3320"
   id="linearGradient3420"
   gradientUnits="userSpaceOnUse"
   x1="9.659768"
   y1="20.0994"
   x2="19.81918"
   y2="20.0994" /><linearGradient
   inkscape:collect="always"
   xlink:href="#radialGradient3328"
   id="linearGradient3422"
   gradientUnits="userSpaceOnUse"
   x1="9.6597681"
   y1="20.0994"
   x2="19.81918"
   y2="20.0994" /><linearGradient
   inkscape:collect="always"
   xlink:href="#linearGradient3320"
   id="linearGradient3424"
   gradientUnits="userSpaceOnUse"
   x1="9.659768"
   y1="20.0994"
   x2="19.81918"
   y2="20.0994" /><linearGradient
   inkscape:collect="always"
   xlink:href="#radialGradient3328"
   id="linearGradient3426"
   gradientUnits="userSpaceOnUse"
   x1="9.6597681"
   y1="20.0994"
   x2="19.81918"
   y2="20.0994" /><linearGradient
   inkscape:collect="always"
   xlink:href="#linearGradient3320"
   id="linearGradient3428"
   gradientUnits="userSpaceOnUse"
   x1="9.659768"
   y1="20.0994"
   x2="19.81918"
   y2="20.0994" /><linearGradient
   inkscape:collect="always"
   xlink:href="#radialGradient3328"
   id="linearGradient3430"
   gradientUnits="userSpaceOnUse"
   x1="9.6597681"
   y1="20.0994"
   x2="19.81918"
   y2="20.0994" /><linearGradient
   inkscape:collect="always"
   xlink:href="#linearGradient3320"
   id="linearGradient3432"
   gradientUnits="userSpaceOnUse"
   x1="9.659768"
   y1="20.0994"
   x2="19.81918"
   y2="20.0994" /><linearGradient
   inkscape:collect="always"
   xlink:href="#radialGradient3328"
   id="linearGradient3434"
   gradientUnits="userSpaceOnUse"
   x1="9.6597681"
   y1="20.0994"
   x2="19.81918"
   y2="20.0994" /><linearGradient
   inkscape:collect="always"
   xlink:href="#linearGradient3320"
   id="linearGradient3436"
   gradientUnits="userSpaceOnUse"
   x1="9.659768"
   y1="20.0994"
   x2="19.81918"
   y2="20.0994" /><linearGradient
   inkscape:collect="always"
   xlink:href="#path635_3_"
   id="linearGradient3444"
   gradientUnits="userSpaceOnUse"
   gradientTransform="translate(308.371,199.852)"
   x1="-232.472"
   y1="-255.38"
   x2="-251.659"
   y2="-138.34" /><radialGradient
   inkscape:collect="always"
   xlink:href="#path601_3_"
   id="radialGradient3447"
   gradientUnits="userSpaceOnUse"
   gradientTransform="translate(308.371,199.852)"
   cx="-260.979"
   cy="-112.963"
   fx="-260.979"
   fy="-112.963"
   r="56.666901" /><linearGradient
   inkscape:collect="always"
   xlink:href="#path635_3_"
   id="linearGradient2469"
   gradientUnits="userSpaceOnUse"
   gradientTransform="translate(308.371,199.852)"
   x1="-232.472"
   y1="-255.38"
   x2="-251.659"
   y2="-138.34" /><radialGradient
   inkscape:collect="always"
   xlink:href="#path601_3_"
   id="radialGradient2472"
   gradientUnits="userSpaceOnUse"
   gradientTransform="translate(308.371,199.852)"
   cx="-260.979"
   cy="-112.963"
   fx="-260.979"
   fy="-112.963"
   r="56.666901" /><linearGradient
   inkscape:collect="always"
   xlink:href="#radialGradient3328"
   id="linearGradient2496"
   gradientUnits="userSpaceOnUse"
   x1="9.6597681"
   y1="20.0994"
   x2="19.81918"
   y2="20.0994" /><linearGradient
   inkscape:collect="always"
   xlink:href="#linearGradient3320"
   id="linearGradient2498"
   gradientUnits="userSpaceOnUse"
   x1="9.659768"
   y1="20.0994"
   x2="19.81918"
   y2="20.0994" /><linearGradient
   inkscape:collect="always"
   xlink:href="#radialGradient3328"
   id="linearGradient2500"
   gradientUnits="userSpaceOnUse"
   x1="9.6597681"
   y1="20.0994"
   x2="19.81918"
   y2="20.0994" /><linearGradient
   inkscape:collect="always"
   xlink:href="#linearGradient3320"
   id="linearGradient2502"
   gradientUnits="userSpaceOnUse"
   x1="9.659768"
   y1="20.0994"
   x2="19.81918"
   y2="20.0994" /><linearGradient
   inkscape:collect="always"
   xlink:href="#radialGradient3328"
   id="linearGradient2504"
   gradientUnits="userSpaceOnUse"
   x1="9.6597681"
   y1="20.0994"
   x2="19.81918"
   y2="20.0994" /><linearGradient
   inkscape:collect="always"
   xlink:href="#linearGradient3320"
   id="linearGradient2506"
   gradientUnits="userSpaceOnUse"
   x1="9.659768"
   y1="20.0994"
   x2="19.81918"
   y2="20.0994" /><linearGradient
   inkscape:collect="always"
   xlink:href="#radialGradient3328"
   id="linearGradient2508"
   gradientUnits="userSpaceOnUse"
   x1="9.6597681"
   y1="20.0994"
   x2="19.81918"
   y2="20.0994" /><linearGradient
   inkscape:collect="always"
   xlink:href="#linearGradient3320"
   id="linearGradient2510"
   gradientUnits="userSpaceOnUse"
   x1="9.659768"
   y1="20.0994"
   x2="19.81918"
   y2="20.0994" /></defs>
<metadata
   id="metadata15686">
  <rdf:RDF>
    <cc:Work
   rdf:about="">
      <dc:format>image/svg+xml</dc:format>
      <dc:type
   rdf:resource="http://purl.org/dc/dcmitype/StillImage" />
    </cc:Work>
  </rdf:RDF>
</metadata>
<sodipodi:namedview
   id="base"
   pagecolor="#ffffff"
   bordercolor="#666666"
   borderopacity="1.0"
   inkscape:pageopacity="0.0"
   inkscape:pageshadow="2"
   inkscape:zoom="4.1671875"
   inkscape:cx="51.849929"
   inkscape:cy="62.829207"
   inkscape:window-width="1024"
   inkscape:window-height="693"
   inkscape:window-x="0"
   inkscape:window-y="26"
   inkscape:current-layer="Layer_1_2_"
   showgrid="false" />

	<g
   id="Layer_1_2_">
		<path
   d="M104.427 80.724 L88.68 88.897 L91.103 94.575 L107.823 85.948 z"
   style="fill-rule:evenodd;clip-rule:evenodd;fill:rgb(255,255,255)"
   id="path15521" />

		<g
   id="g551_2_">
				<g
   id="g552_2_">
					<radialGradient
   gradientUnits="userSpaceOnUse"
   gradientTransform="translate(308.371,199.852)"
   fy="-99.676804"
   fx="-227.502"
   r="44.128799"
   cy="-99.676804"
   cx="-227.502"
   id="path568_3_">
						<stop
   id="stop15531"
   style="stop-color:rgb(255,255,255)"
   offset="0" />

						<stop
   id="stop15533"
   style="stop-color:rgb(231,231,231)"
   offset="0.1204" />

						<stop
   id="stop15535"
   style="stop-color:rgb(170,170,170)"
   offset="0.3746" />

						<stop
   id="stop15537"
   style="stop-color:rgb(74,74,74)"
   offset="0.7382" />

						<stop
   id="stop15539"
   style="stop-color:rgb(0,0,0)"
   offset="1" />

						<a:midPointStop
   id="midPointStop15541"
   style="stop-color:#FFFFFF"
   offset="0" />

						<a:midPointStop
   id="midPointStop15543"
   style="stop-color:#FFFFFF"
   offset="0.5" />

						<a:midPointStop
   id="midPointStop15545"
   style="stop-color:#E7E7E7"
   offset="0.1204" />

						<a:midPointStop
   id="midPointStop15547"
   style="stop-color:#E7E7E7"
   offset="0.5" />

						<a:midPointStop
   id="midPointStop15549"
   style="stop-color:#AAAAAA"
   offset="0.3746" />

						<a:midPointStop
   id="midPointStop15551"
   style="stop-color:#AAAAAA"
   offset="0.5" />

						<a:midPointStop
   id="midPointStop15553"
   style="stop-color:#4A4A4A"
   offset="0.7382" />

						<a:midPointStop
   id="midPointStop15555"
   style="stop-color:#4A4A4A"
   offset="0.5" />

						<a:midPointStop
   id="midPointStop15557"
   style="stop-color:#000000"
   offset="1" />

					</radialGradient>

					<path
   style="fill:url(#path568_3_)"
   d="M 79.872,47.497 C 105.853,32.964 120.164,45.888 125.062,52.022 L 126.525,35.822 C 126.525,35.822 112.891,15.537 81.176,30.049 C 49.461,44.561 40.896,32.674 40.896,32.674 L 38.47,51.487 C 40.695,54.178 51.158,63.558 79.872,47.497 z"
   id="path568_2_" />

					<path
   id="path15562"
   d="M 81.044,29.758 C 49.994,43.966 41.241,32.604 41.156,32.486 L 40.683,31.837 L 38.137,51.584 L 38.226,51.69 C 40.806,54.813 51.448,63.763 80.029,47.776 C 105.754,33.386 119.919,46.092 124.814,52.223 L 125.311,52.845 L 126.856,35.739 L 126.793,35.646 C 126.654,35.439 112.641,15.301 81.044,29.758 z M 81.31,30.339 C 111.526,16.514 125.324,34.7 126.198,35.912 C 126.178,36.135 124.941,49.828 124.815,51.22 C 119.406,44.785 105.063,33.039 79.716,47.217 C 51.84,62.809 41.436,54.484 38.807,51.381 C 38.843,51.104 40.956,34.712 41.123,33.419 C 43.329,35.663 53.388,43.116 81.31,30.339 z" />

					<radialGradient
   gradientUnits="userSpaceOnUse"
   gradientTransform="translate(308.371,199.852)"
   fy="-99.669403"
   fx="-227.498"
   r="44.130299"
   cy="-99.669403"
   cx="-227.498"
   id="path576_3_">
						<stop
   id="stop15566"
   style="stop-color:rgb(255,255,93)"
   offset="0" />

						<stop
   id="stop15568"
   style="stop-color:rgb(220,0,0)"
   offset="1" />

						<a:midPointStop
   id="midPointStop15570"
   style="stop-color:#FFFF5D"
   offset="0" />

						<a:midPointStop
   id="midPointStop15572"
   style="stop-color:#FFFF5D"
   offset="0.5" />

						<a:midPointStop
   id="midPointStop15574"
   style="stop-color:#DC0000"
   offset="1" />

					</radialGradient>

					<path
   style="fill:url(#path576_3_)"
   d="M 77.544,71.964 C 102.653,57.918 117.142,68.855 122.95,75.439 L 125.063,52.022 C 120.165,45.887 105.854,32.963 79.873,47.497 C 51.158,63.559 40.695,54.178 38.471,51.486 L 35.453,74.893 L 35.3,76.353 C 38.054,79.426 49.035,87.909 77.544,71.964 z"
   id="path576_2_" />

					<path
   id="path15579"
   style="fill:#790000"
   d="M 79.716,47.217 C 51.566,62.963 41.219,54.309 38.718,51.282 L 38.249,50.713 L 35.136,74.852 C 35.135,74.86 34.967,76.459 34.967,76.459 L 35.061,76.564 C 37.796,79.616 48.951,88.322 77.7,72.241 C 102.173,58.551 116.405,68.501 122.71,75.649 L 123.202,76.207 L 125.393,51.923 L 125.313,51.822 C 120.315,45.564 105.868,32.588 79.716,47.217 z M 80.027,47.775 C 105.622,33.459 119.767,45.96 124.731,52.125 C 124.71,52.376 122.818,73.337 122.695,74.688 C 116.035,67.451 101.647,58.114 77.385,71.684 C 49.331,87.377 38.421,79.272 35.631,76.237 C 35.657,75.995 35.769,74.926 35.769,74.926 C 35.769,74.926 38.216,55.947 38.698,52.213 C 41.942,55.662 52.879,62.962 80.027,47.775 z" />

					<radialGradient
   gradientUnits="userSpaceOnUse"
   gradientTransform="translate(308.371,199.852)"
   fy="-99.959"
   fx="-227.496"
   r="44.117199"
   cy="-99.959"
   cx="-227.496"
   id="path584_3_">
						<stop
   id="stop15583"
   style="stop-color:rgb(255,255,106)"
   offset="0" />

						<stop
   id="stop15585"
   style="stop-color:rgb(255,159,0)"
   offset="1" />

						<a:midPointStop
   id="midPointStop15587"
   style="stop-color:#FFFF6A"
   offset="0" />

						<a:midPointStop
   id="midPointStop15589"
   style="stop-color:#FFFF6A"
   offset="0.5" />

						<a:midPointStop
   id="midPointStop15591"
   style="stop-color:#FF9F00"
   offset="1" />

					</radialGradient>

					<path
   style="fill:url(#path584_3_)"
   d="M 33.356,98.526 C 37.308,101.234 53.757,110.381 81.177,97.836 C 112.892,83.324 120.876,97.836 120.876,97.836 L 122.949,75.44 C 117.14,68.856 102.652,57.919 77.542,71.965 C 49.035,87.909 38.054,79.427 35.298,76.353 L 32.932,98.227 C 33.053,98.315 33.194,98.415 33.356,98.526 z"
   id="path584_2_" />

					<path
   id="path15596"
   style="fill:#ff9500"
   d="M 77.387,71.684 C 49.054,87.534 38.192,79.101 35.537,76.138 L 35.059,75.604 L 32.594,98.377 L 33.174,98.788 C 37.559,101.793 53.991,110.626 81.31,98.124 C 112.342,83.925 120.518,97.846 120.597,97.987 L 121.099,98.893 L 123.281,75.33 L 123.189,75.225 C 116.757,67.935 102.252,57.775 77.387,71.684 z M 77.7,72.242 C 102.059,58.616 116.269,68.409 122.618,75.55 C 122.594,75.818 120.782,95.393 120.637,96.955 C 118.412,94.187 108.449,85.002 81.044,97.544 C 54.032,109.905 37.852,101.219 33.536,98.263 C 33.536,98.263 33.393,98.161 33.271,98.074 C 33.31,97.719 35.41,78.309 35.545,77.059 C 38.943,80.415 50.341,87.545 77.7,72.242 z M 33.177,98.791 L 33.176,98.79 L 33.177,98.791 z" />

				</g>

				<linearGradient
   gradientTransform="translate(308.371,199.852)"
   y2="-114.038"
   x2="-222.24001"
   y1="-231.07899"
   x1="-203.05299"
   gradientUnits="userSpaceOnUse"
   id="path592_3_">
					<stop
   id="stop15601"
   style="stop-color:rgb(255,255,255)"
   offset="4.5977%" />

					<stop
   id="stop15603"
   style="stop-opacity:0;stop-color:rgb(255,255,255)"
   offset="100%" />

				</linearGradient>

				<path
   style="fill:url(#path592_3_)"
   d="M 105.457,27.003 C 99.47,26.168 91.956,26.836 82.811,30.586 L 80.631,47.477 L 76.62,78.599 C 76.619,78.607 76.44,80.31 76.408,80.62 L 74.365,99.496 C 76.362,98.778 78.423,97.95 80.56,96.971 C 87.315,93.88 92.933,92.189 97.586,91.413 L 99.634,72.486 C 99.662,72.215 99.82,70.722 99.821,70.715 L 103.339,43.434 L 105.457,27.003 z"
   a:adobe-blending-mode="screen"
   id="path592_2_" />

			</g>

	<g
   id="g2519"><path
     id="path593_2_"
     d="M 93.632,80.4 L 94.136,81.31 L 99.25,24.67 C 93.991,25.097 87.937,26.605 81.044,29.758 C 49.994,43.966 41.241,32.604 41.156,32.486 L 40.683,31.837 L 38.249,50.714 L 35.136,74.853 C 35.135,74.86 34.996,76.18 34.972,76.419 L 33.872,86.578 C 39.829,85.855 46.665,84.05 54.344,80.536 C 85.376,66.336 93.552,80.257 93.632,80.4 z"
     style="opacity:0.2" /><path
     id="path15628"
     style="fill:#fd0000;fill-opacity:1"
     d="M 48.961,5.208 C 17.912,19.416 9.158,8.053 9.073,7.937 L 8.6,7.288 L 0,73.981 L 0.133,74.093 C 0.305,74.239 17.693,88.572 49.228,74.14 C 80.26,59.941 88.436,73.862 88.516,74.003 L 89.021,74.914 L 94.774,11.187 L 94.71,11.094 C 94.571,10.889 80.557,-9.249 48.961,5.208 z M 49.228,5.79 C 79.443,-8.035 93.244,10.151 94.116,11.364 C 94.095,11.596 88.703,71.312 88.553,72.968 C 86.327,70.198 76.362,61.022 48.962,73.559 C 19.225,87.167 2.296,74.966 0.681,73.711 C 0.726,73.358 8.864,10.242 9.041,8.868 C 11.246,11.112 21.305,18.566 49.228,5.79 z" /><path
     style="fill:url(#radialGradient2472)"
     d="M 49.095,5.499 C 17.379,20.01 8.814,8.124 8.814,8.124 L 0.34,73.849 C 0.34,73.849 17.38,88.362 49.095,73.849 C 80.808,59.338 88.794,73.849 88.794,73.849 L 94.443,11.272 C 94.443,11.272 80.808,-9.012 49.095,5.499 z"
     id="path601_2_" /><path
     style="fill:url(#linearGradient2469)"
     d="M 76.038,2.702 C 70.051,1.867 62.537,2.535 53.391,6.285 L 51.213,23.175 L 47.2,54.296 C 47.2,54.305 47.021,56.008 46.988,56.318 L 44.946,75.194 C 46.943,74.475 49.003,73.648 51.141,72.669 C 57.897,69.578 63.515,67.886 68.168,67.111 L 70.216,48.184 C 70.244,47.913 70.402,46.42 70.402,46.413 L 73.92,19.133 L 76.038,2.702 z"
     a:adobe-blending-mode="screen"
     id="path635_2_" /><g
     id="g2512"><path
       sodipodi:type="star"
       style="fill:url(#linearGradient3418);fill-opacity:1;stroke:url(#linearGradient3420);stroke-width:0.42338625;stroke-linejoin:round;stroke-miterlimit:4;stroke-dasharray:none;stroke-dashoffset:0;stroke-opacity:1"
       id="path3302"
       sodipodi:sides="5"
       sodipodi:cx="14.514286"
       sodipodi:cy="20.37401"
       sodipodi:r1="5.1701455"
       sodipodi:r2="2.5850728"
       sodipodi:arg1="1.0838971"
       sodipodi:arg2="1.7122156"
       inkscape:flatsided="false"
       inkscape:rounded="0"
       inkscape:randomized="0"
       d="M 16.933334,24.943322 L 14.149924,22.933276 L 10.916139,24.086656 L 11.967686,20.818338 L 9.8714612,18.099239 L 13.304762,18.089354 L 15.24301,15.255478 L 16.31336,18.517687 L 19.607487,19.485354 L 16.835699,21.511395 L 16.933334,24.943322 z"
       transform="matrix(2.0851858,0,0,2.0628385,-8.33475,-14.64284)" /><path
       sodipodi:type="star"
       style="fill:url(#linearGradient2496);fill-opacity:1;stroke:url(#linearGradient2498);stroke-width:0.42338625;stroke-linejoin:round;stroke-miterlimit:4;stroke-dasharray:none;stroke-dashoffset:0;stroke-opacity:1"
       id="path3334"
       sodipodi:sides="5"
       sodipodi:cx="14.514286"
       sodipodi:cy="20.37401"
       sodipodi:r1="5.1701455"
       sodipodi:r2="2.5850728"
       sodipodi:arg1="1.0838971"
       sodipodi:arg2="1.7122156"
       inkscape:flatsided="false"
       inkscape:rounded="0"
       inkscape:randomized="0"
       d="M 16.933334,24.943322 L 14.149924,22.933276 L 10.916139,24.086656 L 11.967686,20.818338 L 9.8714612,18.099239 L 13.304762,18.089354 L 15.24301,15.255478 L 16.31336,18.517687 L 19.607487,19.485354 L 16.835699,21.511395 L 16.933334,24.943322 z"
       transform="matrix(0.4498098,-0.6682571,0.7276501,0.4897878,24.112563,14.615719)" /><path
       sodipodi:type="star"
       style="fill:url(#linearGradient2500);fill-opacity:1;stroke:url(#linearGradient2502);stroke-width:0.42338625;stroke-linejoin:round;stroke-miterlimit:4;stroke-dasharray:none;stroke-dashoffset:0;stroke-opacity:1"
       id="path3340"
       sodipodi:sides="5"
       sodipodi:cx="14.514286"
       sodipodi:cy="20.37401"
       sodipodi:r1="5.1701455"
       sodipodi:r2="2.5850728"
       sodipodi:arg1="1.0838971"
       sodipodi:arg2="1.7122156"
       inkscape:flatsided="false"
       inkscape:rounded="0"
       inkscape:randomized="0"
       d="M 16.933334,24.943322 L 14.149924,22.933276 L 10.916139,24.086656 L 11.967686,20.818338 L 9.8714612,18.099239 L 13.304762,18.089354 L 15.24301,15.255478 L 16.31336,18.517687 L 19.607487,19.485354 L 16.835699,21.511395 L 16.933334,24.943322 z"
       transform="matrix(0.7958611,-7.9811433e-2,8.6904843e-2,0.8665951,33.979565,9.5278548)" /><path
       sodipodi:type="star"
       style="fill:url(#linearGradient2504);fill-opacity:1;stroke:url(#linearGradient2506);stroke-width:0.42338625;stroke-linejoin:round;stroke-miterlimit:4;stroke-dasharray:none;stroke-dashoffset:0;stroke-opacity:1"
       id="path3346"
       sodipodi:sides="5"
       sodipodi:cx="14.514286"
       sodipodi:cy="20.37401"
       sodipodi:r1="5.1701455"
       sodipodi:r2="2.5850728"
       sodipodi:arg1="1.0838971"
       sodipodi:arg2="1.7122156"
       inkscape:flatsided="false"
       inkscape:rounded="0"
       inkscape:randomized="0"
       d="M 16.933334,24.943322 L 14.149924,22.933276 L 10.916139,24.086656 L 11.967686,20.818338 L 9.8714612,18.099239 L 13.304762,18.089354 L 15.24301,15.255478 L 16.31336,18.517687 L 19.607487,19.485354 L 16.835699,21.511395 L 16.933334,24.943322 z"
       transform="matrix(8.7215567e-2,0.806874,-0.8785868,9.4967075e-2,61.3378,22.171134)" /><path
       sodipodi:type="star"
       style="fill:url(#linearGradient2508);fill-opacity:1;stroke:url(#linearGradient2510);stroke-width:0.42338625;stroke-linejoin:round;stroke-miterlimit:4;stroke-dasharray:none;stroke-dashoffset:0;stroke-opacity:1"
       id="path3352"
       sodipodi:sides="5"
       sodipodi:cx="14.514286"
       sodipodi:cy="20.37401"
       sodipodi:r1="5.1701455"
       sodipodi:r2="2.5850728"
       sodipodi:arg1="1.0838971"
       sodipodi:arg2="1.7122156"
       inkscape:flatsided="false"
       inkscape:rounded="0"
       inkscape:randomized="0"
       d="M 16.933334,24.943322 L 14.149924,22.933276 L 10.916139,24.086656 L 11.967686,20.818338 L 9.8714612,18.099239 L 13.304762,18.089354 L 15.24301,15.255478 L 16.31336,18.517687 L 19.607487,19.485354 L 16.835699,21.511395 L 16.933334,24.943322 z"
       transform="matrix(0.7958594,0.2930099,-0.319052,0.8665934,33.030306,21.823519)" /></g></g></g>

</svg>